<svg width="30" height="32" fill="none" xmlns="http://www.w3.org/2000/svg"><path d="M6.715 31.765H.495V10.557h6.22v21.208zm-3.113-24.1C1.613 7.664 0 5.92 0 3.813a3.93 3.93 0 0 1 1.055-2.697A3.504 3.504 0 0 1 3.602 0c.955 0 1.872.402 2.547 1.117a3.93 3.93 0 0 1 1.055 2.697c0 2.106-1.614 3.85-3.602 3.85zm26.391 24.1h-6.206V21.44c0-2.46-.047-5.616-3.234-5.616-3.233 0-3.729 2.673-3.729 5.439v10.5h-6.213V10.558h5.965v2.893h.087c.83-1.666 2.86-3.425 5.885-3.425 6.295 0 7.452 4.39 7.452 10.09v11.65h-.007z" fill="#000"/></svg>