<svg width="34" height="28" fill="none" xmlns="http://www.w3.org/2000/svg"><path d="M3.111 27.333c-.75 0-1.4-.275-1.951-.826-.551-.551-.827-1.202-.827-1.952V3.445c0-.75.276-1.401.827-1.952C1.71.942 2.36.667 3.11.667H30.89c.75 0 1.4.275 1.951.826.551.55.827 1.201.827 1.951v21.111c0 .75-.276 1.4-.827 1.952-.55.55-1.201.826-1.951.826H3.11zM30.89 6.083 17.736 14.57c-.12.065-.238.118-.354.16a1.12 1.12 0 0 1-.382.063 1.12 1.12 0 0 1-.382-.063 2.632 2.632 0 0 1-.354-.16L3.11 6.083v18.472H30.89V6.083zM17 12.278l13.778-8.834H3.25L17 12.278zM3.111 6.416V4.505v.034-1.095 1.084-.033 1.921z" fill="#1C1B1F"/></svg>