<svg width="30" height="32" viewBox="0 0 30 32" fill="none" xmlns="http://www.w3.org/2000/svg">
<path d="M6.71518 31.7647H0.495536V10.557H6.71518V31.7647ZM3.60201 7.66411C1.61317 7.66411 0 5.91985 0 3.81398C1.42353e-08 2.80245 0.379496 1.83235 1.055 1.11709C1.73051 0.401828 2.6467 0 3.60201 0C4.55732 0 5.47351 0.401828 6.14901 1.11709C6.82452 1.83235 7.20402 2.80245 7.20402 3.81398C7.20402 5.91985 5.59018 7.66411 3.60201 7.66411ZM29.9933 31.7647H23.7871V21.4409C23.7871 18.9805 23.7402 15.8253 20.5533 15.8253C17.3196 15.8253 16.8241 18.4984 16.8241 21.2637V31.7647H10.6112V10.557H16.5763V13.45H16.6634C17.4937 11.7837 19.5221 10.0252 22.5482 10.0252C28.8429 10.0252 30 14.4143 30 20.115V31.7647H29.9933Z" fill="black"/>
</svg>
