<svg width="70" height="70" viewBox="0 0 70 70" fill="none" xmlns="http://www.w3.org/2000/svg">
<g clip-path="url(#clip0_209_66)">
<path d="M35 35.9998C35 29.7407 39.4762 24.6665 44.998 24.6665C50.5196 24.6665 54.996 29.7407 54.996 35.9998C54.996 42.2591 50.5196 47.3332 44.998 47.3332C39.4762 47.3332 35 42.2591 35 35.9998Z" fill="#1ABCFE"/>
<path d="M15.004 58.6668C15.004 52.4077 19.4802 47.3335 25.002 47.3335H35V58.6668C35 64.9261 30.5238 70.0002 25.002 70.0002C19.4802 70.0002 15.004 64.9261 15.004 58.6668Z" fill="#0ACF83"/>
<path d="M35 2V24.6665H44.998C50.5198 24.6665 54.996 19.5925 54.996 13.3332C54.996 7.0739 50.5198 2 44.998 2H35Z" fill="#FF7262"/>
<path d="M15.0038 13.3333C15.0038 19.5926 19.48 24.6667 25.0018 24.6667H34.9998V2H25.0018C19.48 2 15.0038 7.07422 15.0038 13.3333Z" fill="#F24E1E"/>
<path d="M15.004 35.9998C15.004 42.2591 19.4802 47.3332 25.002 47.3332H35V24.6665H25.002C19.4802 24.6665 15.004 29.7407 15.004 35.9998Z" fill="#A259FF"/>
</g>
<defs>
<clipPath id="clip0_209_66">
<rect width="40" height="68" fill="white" transform="translate(15 2)"/>
</clipPath>
</defs>
</svg>
