<svg width="70" height="70" fill="none" xmlns="http://www.w3.org/2000/svg"><g clip-path="url(#a)"><path d="M35 36c0-6.26 4.476-11.334 9.998-11.334 5.522 0 9.998 5.075 9.998 11.334 0 6.26-4.476 11.333-9.998 11.333C39.476 47.333 35 42.26 35 36z" fill="#1ABCFE"/><path d="M15.004 58.667c0-6.26 4.476-11.334 9.998-11.334H35v11.334C35 64.927 30.524 70 25.002 70c-5.522 0-9.998-5.074-9.998-11.333z" fill="#0ACF83"/><path d="M35 2v22.666h9.998c5.522 0 9.998-5.073 9.998-11.333S50.52 2 44.998 2H35z" fill="#FF7262"/><path d="M15.004 13.333c0 6.26 4.476 11.334 9.998 11.334H35V2h-9.998c-5.522 0-9.998 5.074-9.998 11.333z" fill="#F24E1E"/><path d="M15.004 36c0 6.26 4.476 11.333 9.998 11.333H35V24.667h-9.998c-5.522 0-9.998 5.074-9.998 11.333z" fill="#A259FF"/></g><defs><clipPath id="a"><path fill="#fff" transform="translate(15 2)" d="M0 0h40v68H0z"/></clipPath></defs></svg>