<svg width="70" height="70" fill="none" xmlns="http://www.w3.org/2000/svg"><g clip-path="url(#a)"><path d="M25.104 54.523s-2.891 1.509 2.058 2.02c5.996.613 9.06.525 15.668-.597 0 0 1.737.977 4.163 1.824-14.812 5.697-33.523-.33-21.889-3.247zm-1.81-7.435s-3.243 2.154 1.71 2.614c6.405.593 11.463.642 20.216-.87 0 0 1.21 1.1 3.114 1.703-17.909 4.7-37.856.37-25.04-3.447z" fill="#5382A1"/><path d="M38.553 34.476c3.65 3.772-.959 7.165-.959 7.165s9.267-4.293 5.011-9.67c-3.975-5.014-7.023-7.505 9.48-16.095 0 0-25.904 5.806-13.532 18.6z" fill="#E76F00"/><path d="M58.143 60.022s2.14 1.582-2.356 2.806c-8.55 2.325-35.585 3.027-43.096.093-2.7-1.054 2.363-2.517 3.956-2.824 1.66-.323 2.61-.263 2.61-.263-3.002-1.898-19.406 3.727-8.332 5.338 30.2 4.396 55.052-1.98 47.218-5.15zM26.495 39.385s-13.752 2.931-4.87 3.995c3.75.451 11.226.35 18.19-.175 5.691-.43 11.406-1.346 11.406-1.346s-2.007.771-3.459 1.66c-13.965 3.297-40.942 1.763-33.176-1.608 6.568-2.85 11.909-2.526 11.909-2.526zm24.67 12.375c14.195-6.62 7.632-12.983 3.05-12.125-1.123.21-1.623.391-1.623.391s.416-.586 1.212-.84c9.064-2.86 16.034 8.435-2.925 12.908 0 0 .22-.176.285-.334z" fill="#5382A1"/><path d="M42.605 2.007s7.862 7.058-7.456 17.912c-12.284 8.706-2.802 13.67-.005 19.342-7.17-5.806-12.433-10.917-8.902-15.674 5.18-6.983 19.535-10.369 16.363-21.58z" fill="#E76F00"/><path d="M27.89 69.7c13.626.783 34.55-.434 35.046-6.22 0 0-.952 2.193-11.261 3.935-11.63 1.964-25.975 1.735-34.483.476 0 0 1.742 1.294 10.698 1.81z" fill="#5382A1"/></g><defs><clipPath id="a"><path fill="#fff" transform="translate(7 2)" d="M0 0h56v68H0z"/></clipPath></defs></svg>