<svg width="288" height="294" fill="none" xmlns="http://www.w3.org/2000/svg"><g clip-path="url(#a)"><path d="m195.046 93.618-31.683 13.146-27.596 15.437-7.705 2.589c-1.965 2.391-4.009 4.781-6.289 7.171a305.887 305.887 0 0 1-6.447 6.872c-1.966 1.992-4.796 5.577-6.29 7.868-2.201 3.486-3.931 7.171-4.638 9.959-1.337 5.08-.708 10.258 1.886 15.039 3.224 6.075 9.749 12.25 17.297 16.433 3.852 2.191 10.378 4.88 15.252 6.473 8.098 2.59 23.822 5.478 32.47 5.877 1.73.099 4.088.099 4.167 0 .157-.2 1.572-3.387 3.066-7.47 5.346-13.744 9.12-26.691 11.243-37.646 1.258-6.673 2.201-15.537 2.909-26.094.157-2.988.236-12.847.078-16.134-.235-5.478-.628-9.86-1.179-14.242-.078-.597-.157-1.195-.078-1.195.078-.1.393-.2 4.324-1.593l-.787-2.49zm-7.233 5.378c.315 0 1.022 9.362 1.258 15.238.079 1.195 0 2.091 0 2.091-.157 0-4.009-2.888-6.84-5.079-2.358-1.893-6.918-5.777-7.626-6.474-.236-.199-.236-.199 1.73-1.095 3.302-1.494 11.164-4.681 11.478-4.681zm-16.195 6.772c.236 0 .786.398 2.122 1.394 4.953 3.885 11.636 8.665 14.545 10.259.865.497.944.298-1.022 2.091-4.324 3.785-9.827 7.47-16.431 11.154-1.18.698-2.123 1.196-2.202 1.196-.078 0 .079-.797.315-1.693 1.572-7.57 2.515-15.238 2.594-21.314-.157-3.087-.157-3.087.079-3.087zm-3.302 1.594c.157.199.078 6.971-.158 8.863-.393 4.383-1.1 8.565-2.201 13.246-.236 1.096-.472 2.092-.55 2.092-.079.199-3.381-3.884-4.482-5.478-1.887-2.689-3.302-5.477-4.402-8.167-.551-1.394-1.416-4.083-1.337-4.083.393-.398 13.051-6.573 13.13-6.473zm-15.646 7.768c.158.099.315.597.393 1.095.787 2.689 2.516 6.574 4.01 8.964 1.651 2.689 3.774 5.677 5.503 7.569a66.115 66.115 0 0 1 1.18 1.295c.157.199.157.199-3.695 1.992a255.853 255.853 0 0 1-15.095 6.672c-1.337.598-2.674 1.096-4.01 1.693-.236.1-.157-.099.472-1.294 2.83-5.578 7.075-16.433 9.434-24.202.393-1.294.786-2.689.865-2.987.078-.399.236-.598.55-.797.157.099.315 0 .393 0zm-4.796 2.49c.079.099-1.179 3.286-2.358 6.274-2.359 5.777-4.875 11.354-8.255 18.226-.551 1.195-1.101 2.29-1.18 2.39-.157.199-.157.199-.55-.797-.786-1.992-1.494-4.681-1.808-7.071-.393-2.39-.315-6.474.157-9.063.315-1.892.315-1.892 1.022-2.291 2.909-1.892 12.815-7.768 12.972-7.668zm41.276 2.191v1.294c0 6.773-.55 16.035-1.415 22.807-.157 1.196-.236 2.191-.315 2.191 0 0-.707-.199-1.493-.498-3.617-1.394-7.469-3.485-11.007-5.975-2.359-1.594-5.74-4.283-5.582-4.382 0 0 1.022-.697 2.201-1.494 4.717-3.088 9.199-6.474 13.13-9.76 1.493-1.195 3.695-3.287 4.166-3.785l.315-.398zm-59.358 8.963c.078 0 .078.199-.079 1.295-.078.797-.236 2.291-.236 3.286-.157 4.383.393 7.669 2.123 12.151.472 1.195.865 2.291.865 2.291-.157.199-16.039 6.075-20.992 7.768-1.493.498-2.751.996-2.909.996-.157.099-.157 0-.157-.498.551-4.482 3.224-10.258 6.997-15.238 2.516-3.287 4.482-5.179 7.862-7.669 2.438-1.593 6.133-4.282 6.526-4.382-.079 0-.079 0 0 0zm37.344 8.466s.629.398 1.258.896c5.111 3.785 12.265 7.27 18.319 9.063l.55.199-.786.498c-3.224 2.291-13.68 7.768-24.372 12.848-1.573.697-3.067 1.494-3.381 1.593-.314.199-.55.199-.55.199s.393-1.095.943-2.39c2.988-7.071 5.975-15.736 7.548-21.711.314-.697.471-1.195.471-1.195zm-3.773 1.593s-.158.697-.393 1.394c-2.123 6.374-4.796 13.346-8.334 21.214-.865 1.992-1.651 3.585-1.651 3.585s-.708-.498-1.573-1.195c-5.11-3.984-9.591-8.764-12.5-13.545l-.393-.697 2.201-.797c7.783-2.689 14.466-5.577 21.07-9.162.708-.398 1.494-.797 1.573-.797zm23.664 10.457c0 .698-1.179 6.972-2.201 11.454a474.312 474.312 0 0 1-2.909 12.051c-.55 2.29-1.101 4.182-1.101 4.182s-.157 0-.314-.099c-7.076-1.594-13.523-3.884-19.498-6.972-1.651-.896-4.088-2.191-4.246-2.39-.078-.1 1.416-.896 3.224-1.892 10.928-6.075 22.171-12.848 26.102-15.836.472-.298.865-.498.943-.498zm-54.641 2.391c.079.099-2.987 5.577-7.233 13.146a823.746 823.746 0 0 1-3.852 6.872c-.629 1.195-1.651 2.988-2.202 4.083l-1.022 1.992-1.1-1.195c-1.258-1.295-3.46-4.183-4.482-5.776-2.044-3.287-3.459-6.673-4.009-9.761-.236-1.493-.236-2.191 0-2.29.393-.1 6.761-1.992 12.736-3.785 3.302-.996 7.155-2.091 8.57-2.589 1.415-.399 2.516-.697 2.594-.697zm3.066 1.494.787 1.095c3.459 4.88 6.997 8.466 11.242 11.653.787.498 1.337.996 1.258 1.095-.157.199-14.78 6.772-21.62 9.661-3.774 1.693-6.919 3.087-6.997 3.087l-.472-.398-.393-.399.707-1.294c2.28-4.084 5.111-8.665 11.243-18.027l4.245-6.473zm19.105 17.329s1.101.498 2.359 1.095c3.145 1.494 5.582 2.391 8.884 3.486 4.088 1.295 9.985 2.59 13.444 2.988.55.1.786.1.707.199-.157.1-3.695 1.594-6.289 2.689-4.088 1.594-16.668 6.374-26.967 10.059-1.887.697-3.538 1.295-3.616 1.295-.236.099-1.022-.199-1.022-.299 0-.1.55-.996 1.257-1.992 3.46-5.179 6.84-11.055 9.749-16.532a30.688 30.688 0 0 1 1.494-2.988zm-4.245.099s-1.651 3.486-4.639 9.462c-1.258 2.49-2.673 5.378-3.223 6.374-.472.996-1.18 2.49-1.573 3.386l-.707 1.594-.393-.1c-.865-.299-6.919-2.988-8.491-3.785-1.966-.996-4.01-2.191-5.582-3.286-1.887-1.295-4.325-3.287-4.089-3.287.079 0 3.302-1.195 7.312-2.49 10.456-3.585 16.274-5.677 20.127-7.27.629-.398 1.258-.598 1.258-.598zm29.797 8.864c.157.299-3.774 13.943-5.189 18.226-.315.996-.393 1.195-.629 1.195-.393 0-6.054-.996-9.435-1.693-5.975-1.195-15.959-3.386-18.475-4.083l-.551-.2 3.538-.996c7.705-2.191 11.322-3.386 15.095-4.78 4.717-1.793 9.356-4.083 14.073-6.872.786-.398 1.415-.797 1.573-.797z" fill="url(#b)"/><path d="M162.341.1c-.551-.1-9.042 3.784-14.545 6.573-7.39 3.784-13.13 7.47-16.668 10.656-1.336 1.195-2.987 3.287-3.223 4.084-.079.298-.157.697-.157.995l3.223 3.885 7.626 3.087 18.162 4.083 20.755 4.482.236-2.29h-.157l-2.752-.499-.55-1.195c-2.831-6.274-5.975-14.142-7.784-19.42-1.415-4.084-2.751-8.864-3.459-12.25C162.655.199 162.576.1 162.341.1zm-.394 1.493c.079 0 .158.897.236 1.893.393 4.282 1.18 8.366 2.359 12.748.865 3.386.865 3.187-.157 2.788-2.438-.896-13.366-3.286-21.306-4.68-1.258-.2-2.359-.399-2.359-.499-.079-.1 5.739-3.983 8.255-5.477 3.302-1.892 12.343-6.573 12.972-6.773zm-23.114 13.645.944.398c5.11 2.191 17.846 5.279 24.922 5.976.786.1 1.494.199 1.494.199s-.629.498-1.494.996c-3.381 2.19-7.154 4.78-9.749 6.872-.786.597-1.494 1.095-1.572 1.095-.079 0-.629-.1-1.101-.199l-.943-.2-2.359-2.987c-4.245-5.179-7.547-9.163-8.805-10.756l-1.337-1.394zm-.943.896 3.38 5.378c1.809 2.988 3.696 5.777 4.089 6.474.393.597.707 1.195.707 1.195-.078.1-4.874-1.096-7.39-1.793-2.595-.797-3.695-1.095-5.268-1.793l-1.336-.497v-.399c0-1.992 2.044-5.08 5.503-8.167l.315-.398zm28.696 7.27c.079 0 .236.3.472 1.096.786 2.29 3.38 8.366 4.009 9.56.158.4.551.4-2.83-.298-8.098-1.693-10.692-2.19-10.692-2.29 0 0 .236-.2.55-.498 2.516-1.793 5.032-3.984 7.312-6.375.55-.597 1.022-1.095 1.179-1.195z" fill="url(#c)"/><path d="M128.062 20.915s-.55 1.095 0 2.689c.315.995 1.258 2.19 2.28 3.386 0 0 10.692 13.146 11.95 15.038 5.897 8.665 8.491 17.13 8.727 28.783.157 7.569-.943 14.142-3.774 21.81-4.953 13.745-15.488 28.983-31.683 45.814l2.358-.996c1.494-1.494 3.617-2.988 8.491-6.374 11.321-7.868 23.979-15.039 39.546-22.409 22.407-10.656 59.28-23.205 80.271-27.288l2.201-.399-.314-.697c-1.887-3.784-3.223-6.075-4.796-8.565-4.56-7.27-10.142-13.046-16.982-17.927-9.356-6.672-21.542-11.851-36.951-15.735-2.909-.698-9.277-2.092-14.466-3.088a1366.413 1366.413 0 0 1-25.866-5.378c-2.831-.597-6.997-1.494-9.749-2.29-1.415-.399-4.167-1.196-6.368-2.192-1.887-.697-4.324-1.593-4.875-4.182zm6.211 7.668s.393.2.944.399c.943.398 2.122.896 3.459 1.294 1.022.399 2.123.698 3.145 1.096 1.415.498 2.673.896 2.673.896.157.2 2.594 10.06 3.38 13.744.315 1.394.551 2.69.551 2.69s-.315-.499-.629-1.196c-2.831-6.274-7.233-12.549-12.344-17.728-.707-.697-1.179-1.195-1.179-1.195zm11.793 4.084c.157 0 .629.1 1.258.298 4.088 1.195 11.4 2.889 16.039 3.884.786.2 1.415.3 1.415.399 0 .1-.315.299-.629.498-.786.498-4.01 2.888-5.032 3.784-2.673 2.291-5.032 4.681-6.761 6.872l-1.258 1.594s-.157-.498-.236-1.195c-.865-4.183-2.673-10.458-4.324-14.84-.315-.597-.55-1.294-.472-1.294-.078 0-.078 0 0 0zm20.677 4.98c.157.099.393 1.095.865 3.385.865 4.383 1.258 9.362 1.179 13.944-.078 1.294-.078 2.49-.157 2.589l-.078.299-1.258-.498a755.1 755.1 0 0 0-10.3-3.884c-2.044-.697-3.695-1.295-3.695-1.395 0-.199 2.988-3.983 4.246-5.378 2.437-2.689 9.041-9.162 9.198-9.063zm1.651.298c.079-.1 9.906 2.091 14.388 3.187 3.302.797 8.176 2.092 8.491 2.29.157.1-.393.4-1.966 1.295-6.289 3.586-11.007 6.872-15.724 10.757a65.924 65.924 0 0 0-2.28 1.892s-.078-.897-.078-1.892c0-5.777-.944-11.553-2.595-16.533-.078-.498-.236-.896-.236-.996zm25.473 6.374c.079.1-.236 2.59-.55 3.984-.865 4.482-3.224 11.254-6.054 17.528-.472 1.096-.943 1.992-1.022 2.092-.079 0-.708-.399-1.415-.996-2.752-2.092-5.975-3.984-9.356-5.777-.943-.498-1.808-.896-1.808-.996-.157-.199 7.547-6.672 11.636-9.76 3.223-2.49 8.491-6.175 8.569-6.075zm1.808.398c.236 0 4.56 1.494 6.84 2.39 5.661 2.092 12.108 5.08 16.275 7.57l1.729.996-1.258.398c-10.299 2.988-19.104 6.474-27.595 10.856-.708.398-1.337.697-1.337.697-.078 0 .158-.697.472-1.594 2.594-6.872 4.245-14.042 4.639-20.217.157-.598.235-1.096.235-1.096zm-43.398 12.649c.079-.1 3.381.896 5.189 1.593 2.752.996 8.491 3.386 8.491 3.586 0 0-.629.697-1.415 1.593-3.145 3.287-6.132 6.772-9.749 11.254-1.101 1.295-1.965 2.39-2.044 2.39-.079 0-.079-.199-.079-.398.551-5.08.393-11.652-.314-18.325 0-.996-.079-1.693-.079-1.693zm69.972.1c.079.099-1.572 3.186-2.516 4.979-1.415 2.59-3.538 6.075-8.334 13.644-2.515 3.984-5.346 8.565-6.289 10.06-.944 1.493-1.73 2.788-1.808 2.788 0 0-.315-.498-.708-1.195-2.673-5.08-5.897-9.561-9.67-13.545-.708-.797-1.494-1.593-1.809-1.793a4.115 4.115 0 0 1-.471-.498c0-.1 4.088-2.29 7.154-3.884 5.425-2.788 12.815-6.175 18.319-8.266 2.987-1.295 6.132-2.39 6.132-2.29zm1.887.597c.079 0 .707.299 1.336.896 5.818 4.183 11.558 9.66 16.039 15.238 1.258 1.594 4.403 5.677 4.324 5.776 0 0-1.101.1-2.359.2-10.063.996-22.957 3.685-35.379 7.47-.864.198-1.572.497-1.651.497-.078 0 .865-1.195 2.045-2.59 7.311-8.863 10.613-14.54 14.544-24.5.551-1.692 1.022-2.887 1.101-2.987-.079 0-.079 0 0 0zm-53.383 6.872c.314.1 3.459 1.992 5.818 3.386 2.123 1.394 5.425 3.585 5.582 3.685 0 0-1.101.797-2.516 1.693a197.006 197.006 0 0 0-12.422 8.665c-1.179.896-2.123 1.593-2.123 1.593-.078 0-.078-.1.551-1.593 2.122-4.98 3.852-10.956 4.874-16.732.079-.398.157-.697.236-.697zm-3.066.797c.078.1-.708 3.784-1.258 5.876-.944 3.884-2.673 8.664-4.246 12.35-.393.896-.943 2.09-1.258 2.788l-.629 1.195-1.336-1.594c-1.573-1.892-2.83-3.087-4.481-4.182-.629-.399-1.18-.797-1.18-.897 0-.199 4.088-4.98 7.233-8.366 2.28-2.49 7.076-7.27 7.155-7.17zm19.026 9.86 1.179.995c2.673 2.191 5.818 5.18 8.255 7.769 1.337 1.394 4.01 4.382 4.56 5.178l.315.399-1.966.697c-11.007 3.884-19.419 7.27-29.325 11.852-1.101.498-2.044.896-2.123.896-.157 0-.236.199 2.201-2.689 6.29-7.37 11.951-15.537 16.118-23.404l.786-1.694zm-5.032 1.593c.079.1-3.223 5.876-5.189 9.262-2.358 3.984-6.525 10.557-9.356 14.84-1.179 1.792-2.201 3.286-2.28 3.286-.078 0-.078-.398-.078-1.095 0-3.685-.708-7.57-2.044-10.956-.551-1.394-.629-1.693-.551-1.892.472-.498 7.391-5.577 11.872-8.565 2.909-1.992 7.547-4.98 7.626-4.88zm-30.269 9.362c.079 0 .629.398 1.258.796 1.494 1.096 2.909 2.291 4.089 3.486.078.1-.551.697-1.416 1.494-2.28 2.092-5.739 5.378-7.704 7.37-2.123 2.091-2.202 2.191-1.966 1.693 1.572-3.087 2.359-4.78 3.223-6.971.708-1.992 1.494-4.283 2.045-6.374.157-.797.393-1.494.471-1.494zm8.098 8.067c.157 0 .236.199.944 1.494 1.336 2.59 2.437 6.075 2.673 8.863l.078.598-3.302 1.594c-5.896 2.888-11.321 5.776-14.937 7.867-1.023.598-2.831 1.693-4.01 2.391-1.179.796-2.123 1.294-2.123 1.294s.708-.697 1.651-1.593c7.155-6.573 13.366-13.844 18.004-21.014.472-.797.944-1.494 1.022-1.494zm-3.695 1.095c.079.1-2.673 4.084-4.481 6.474-4.639 5.975-9.199 10.656-14.859 15.238-.708.597-1.337 1.095-1.416 1.195-.157.099.079-.199 2.516-3.586 1.573-2.191 2.752-3.983 4.167-6.174.944-1.494 1.101-1.693 2.359-2.889 3.459-3.386 11.557-10.357 11.714-10.258z" fill="url(#d)"/><path fill-rule="evenodd" clip-rule="evenodd" d="M193.395 238.029c-3.302 0-5.739 1.693-7.468 4.979l-1.337 2.59v-6.773h-5.661v40.734h5.661v-13.047c0-11.951.079-13.345 1.415-16.532 1.808-4.482 4.953-6.673 7.941-5.677l2.044.697v-7.071l-2.595.1zm-33.177-.399c-1.101 0-2.28.199-3.46.498-7.547 2.49-11.793 11.653-11.557 21.114 0 7.868 1.18 11.852 4.246 16.035 6.132 6.374 11.714 6.872 19.262 3.485a512.112 512.112 0 0 0 2.673-1.494v-6.373l-2.673 1.792c-6.054 3.386-10.693 3.386-14.388-.597-2.358-2.988-3.38-6.673-3.852-10.756h22.8v-5.478c0-11.254-5.346-18.325-13.051-18.226zm-9.199 17.927s.865-6.971 3.931-9.76c1.494-1.295 3.224-1.992 4.953-1.992 1.73 0 3.381.697 4.796 2.092 2.83 2.788 3.381 9.66 3.381 9.66h-17.061zm-136.327-7.37c-6.132-4.681-8.884-8.067-8.49-12.051.943-11.054 11.714-9.561 17.689-5.378l.078-7.469s-3.302-1.793-8.019-1.892c-7.233-.1-11.95 2.888-14.152 9.063-3.223 9.063-.393 15.935 9.985 23.504 5.818 4.282 8.412 7.967 8.412 12.05 0 8.366-7.94 11.255-16.195 6.076-1.73-1.096-3.145-1.992-3.224-1.992-.314 2.39-.157 8.067-.157 8.067s2.516 1.295 6.29 2.29c9.434 2.391 17.925-3.186 18.79-12.249.629-8.566-1.808-13.047-11.007-20.019zm228.784-10.557c-1.1 0-2.28.199-3.459.498-7.547 2.49-11.793 11.653-11.557 21.114 0 7.868 1.179 11.852 4.245 15.935 6.133 6.374 11.715 6.972 19.341 3.486a512.112 512.112 0 0 0 2.673-1.494v-6.374l-2.673 1.793c-6.132 3.386-10.692 3.386-14.387-.598-2.359-2.988-3.381-6.573-3.853-10.756h22.721v-5.478c0-11.254-5.346-18.325-13.051-18.126zm-9.277 17.828s.865-6.972 3.931-9.761c1.494-1.394 3.224-1.992 4.875-1.992 1.651 0 3.38.698 4.796 2.092 2.83 2.789 3.38 9.661 3.38 9.661h-16.982zm-103.621-7.171c-6.132-4.681-8.805-8.067-8.491-12.051.943-11.055 11.714-9.561 17.69-5.378l.078-7.47s-3.302-1.792-8.019-1.892c-7.233-.099-11.95 2.888-14.152 9.063-3.223 9.063-.314 15.935 9.985 23.504 5.818 4.283 8.334 7.968 8.334 11.951 0 8.366-7.941 11.354-16.196 6.076-1.651-1.096-3.145-1.992-3.223-1.992-.315 2.39-.158 8.067-.158 8.067s2.516 1.295 6.29 2.29c9.434 2.391 17.925-3.186 18.79-12.249.708-8.466-1.729-12.948-10.928-19.919zm146.076-10.358c-3.302 0-5.818 1.693-7.469 4.98l-1.336 2.589v-6.772h-5.661v40.734h5.661v-12.948c0-11.951.078-13.345 1.415-16.532 1.808-4.482 4.953-6.673 7.94-5.577l2.045.697v-7.071l-2.595-.1zm-59.201 18.226-4.717 15.437-4.481-15.537-4.56-17.23h-5.818a1387.036 1387.036 0 0 0 12.029 40.734c1.205.067 2.411.044 3.616.022a99.19 99.19 0 0 1 1.808-.022l6.369-20.217 6.447-20.616h-5.583c-.078.099-2.515 8.266-5.11 17.429zM98.815 206.458c.944 0 1.652-.399 2.281-1.196.628-.796.943-1.693.943-2.888 0-1.195-.315-2.091-.943-2.888-.629-.697-1.337-1.096-2.28-1.096-.944 0-1.73.399-2.28 1.196-.63.796-.944 1.792-.944 2.888 0 1.195.315 2.191.944 2.888.55.697 1.336 1.096 2.28 1.096zm-2.044-6.673c.55-.697 1.18-.996 2.044-.996.787 0 1.494.299 2.045.996.55.697.864 1.494.864 2.589 0 .996-.314 1.892-.864 2.59-.551.697-1.258.996-2.044.996-.787 0-1.494-.299-2.045-.996-.55-.698-.864-1.594-.864-2.59.078-.996.314-1.892.864-2.589zm1.337 2.988h.393c.236 0 .55.298.708.896l.471 1.295h.708l-.55-1.395c-.236-.597-.472-.896-.708-.996.315-.099.55-.199.786-.498.157-.199.236-.597.236-.896 0-.398-.079-.697-.314-.996-.236-.299-.63-.398-1.18-.398H97.48v5.179h.55l.079-2.191zm0-2.391h.55c.393 0 .63.1.787.199.157.1.157.299.157.698 0 .597-.315.896-.865.896h-.63v-1.793zM4 202.275c0-1.076-.029-2.008-.051-2.754-.015-.497-.028-.911-.028-1.23.157.896.315 1.593.472 2.091l5.503 15.437h.944l5.503-15.636c.157-.398.315-1.095.472-1.992h.078l-.042.843c-.062 1.216-.115 2.245-.115 3.141v13.644h1.887v-20.317h-2.358l-5.11 14.242c-.075.284-.186.612-.314.997-.143.425-.308.918-.473 1.493h-.079c-.056-.429-.234-.96-.446-1.594a47.538 47.538 0 0 1-.261-.796l-4.953-14.242H2.113v20.317H3.92L4 202.275zm18.633.099h1.65v12.649h-1.65v-12.649zm.786-4.681c.314 0 .629-.099.865-.398.236-.299.393-.598.393-1.096 0-.398-.079-.796-.393-1.095-.236-.299-.55-.399-.865-.399-.315 0-.63.1-.865.399a1.814 1.814 0 0 0-.393 1.095c0 .498.079.797.393 1.096.236.299.55.398.865.398zm12.343 17.529v-2.191c-.865.796-1.808 1.294-2.83 1.294-1.18 0-2.123-.498-2.83-1.493-.708-.996-1.101-2.291-1.101-3.984 0-1.793.393-3.187 1.1-4.183.708-.996 1.73-1.494 2.83-1.494.944 0 1.888.398 2.753 1.095v-2.489c-.787-.498-1.651-.698-2.673-.698-1.809 0-3.303.698-4.325 2.192-1.022 1.394-1.572 3.386-1.572 5.776 0 2.091.472 3.884 1.494 5.179 1.022 1.394 2.358 2.091 3.93 2.091 1.337-.099 2.36-.398 3.224-1.095zm4.639-6.673c0-1.693.314-2.988.865-3.984.55-.797 1.1-1.294 1.887-1.294.629 0 1.1.099 1.415.498v-2.391a2.958 2.958 0 0 0-1.101-.199c-.629 0-1.258.299-1.73.797-.55.597-1.022 1.394-1.258 2.49h-.078v-2.988h-1.808v14.54H40.4v-7.469zm10.535 7.669c1.73 0 3.145-.697 4.167-2.092 1.022-1.394 1.572-3.286 1.572-5.577 0-2.39-.471-4.183-1.415-5.577-.943-1.395-2.28-1.992-4.01-1.992s-3.144.697-4.166 1.892c-1.101 1.394-1.652 3.386-1.652 5.876 0 2.191.472 3.984 1.494 5.378.944 1.395 2.28 2.092 4.01 2.092zm-2.594-11.752c.707-.897 1.65-1.395 2.751-1.395 1.18 0 2.044.498 2.752 1.395.629.996 1.022 2.39 1.022 4.183 0 1.792-.315 3.187-.944 4.083-.629.996-1.572 1.494-2.751 1.494-1.18 0-2.123-.498-2.83-1.494-.708-.996-1.023-2.291-1.023-4.083-.078-1.793.236-3.187 1.023-4.183zm16.274 10.557c.707-.797 1.1-1.793 1.1-2.988 0-1.096-.314-1.992-.864-2.689-.472-.598-1.101-1.096-2.123-1.594-.865-.498-1.415-.896-1.73-1.195-.314-.398-.471-.797-.471-1.494 0-.597.157-1.095.55-1.394.393-.398.865-.598 1.494-.598 1.022 0 1.808.299 2.594.996v-2.29c-.707-.498-1.572-.698-2.437-.698-1.18 0-2.201.399-2.909 1.196-.786.796-1.1 1.792-1.1 2.987 0 1.096.235 1.992.707 2.59.393.597 1.1 1.095 2.044 1.593s1.572.996 1.887 1.395c.314.398.472.796.472 1.394 0 1.394-.708 2.091-2.202 2.091-1.1 0-2.123-.498-2.987-1.394v2.49c.786.598 1.73.896 2.83.896 1.337-.099 2.437-.498 3.145-1.294zm8.727-13.944c-1.73 0-3.145.698-4.167 1.893-1.1 1.394-1.651 3.386-1.651 5.876 0 2.191.471 3.984 1.493 5.378 1.023 1.394 2.36 2.091 4.089 2.091 1.73 0 3.145-.697 4.167-2.091 1.022-1.394 1.572-3.287 1.572-5.577 0-2.391-.472-4.183-1.415-5.578-1.022-1.394-2.359-1.992-4.088-1.992zm3.616 7.57c0 1.792-.314 3.187-.943 4.083-.63.996-1.573 1.494-2.752 1.494-1.18 0-2.123-.498-2.83-1.494-.708-.996-1.022-2.291-1.022-4.083 0-1.893.393-3.287 1.1-4.283.708-.896 1.651-1.394 2.752-1.394 1.1 0 2.044.498 2.673 1.394.708.996 1.022 2.39 1.022 4.283zm4.953 7.27h1.808V203.37h2.674v-1.992H83.72v-2.191c0-1.992.63-3.087 1.887-3.087.472 0 .865.099 1.18.398v-2.091c-.315-.199-.787-.199-1.337-.199-1.022 0-1.808.398-2.437 1.195-.786.896-1.18 2.091-1.18 3.784v2.39h-1.965v1.992h1.966l.078 12.35zm7.548-3.984c0 2.789 1.022 4.283 2.987 4.283.708 0 1.258-.1 1.73-.498v-1.992c-.315.299-.708.498-1.18.498-.628 0-1.021-.199-1.336-.598-.236-.398-.393-1.095-.393-2.091v-8.167h2.909v-1.992h-2.909v-4.282c-.493.234-.985.407-1.44.566l-.368.131v3.486h-1.966v1.992h1.966v8.664zm196.943 26.791c-.629-.697-1.337-1.096-2.28-1.096-.943 0-1.73.399-2.28 1.195-.629.797-.943 1.793-.943 2.889 0 1.195.314 2.091.943 2.888.629.697 1.415 1.095 2.28 1.095.943 0 1.651-.398 2.28-1.195.629-.797.943-1.693.943-2.888.079-1.195-.314-2.191-.943-2.888zm-.236 5.477c-.55.698-1.179.996-2.044.996-.786 0-1.494-.298-2.044-.996-.55-.697-.865-1.593-.865-2.589s.236-1.892.786-2.589c.551-.698 1.18-.996 2.044-.996.787 0 1.494.298 2.044.996.551.697.865 1.593.865 2.589s-.236 1.892-.786 2.589zm-1.651-2.39c.315-.099.55-.299.786-.498.158-.199.236-.597.236-.896 0-.398-.078-.697-.314-.996-.236-.299-.629-.398-1.18-.398h-1.179v5.178h.55v-2.191h.394c.235 0 .471.299.707.897l.472 1.294h.707l-.55-1.394c-.236-.597-.472-.896-.629-.996zm-.393-.498h-.629v-1.693h.55c.393 0 .629.1.787.199.157.1.157.299.157.697-.079.598-.315.797-.865.797zm-102.442-40.534h.55v-5.179h1.337v-.697h-3.223v.697h1.336v5.179zm3.066-5.08c0 .299.079.498.157.598l1.573 4.482h.236l1.572-4.482c.049-.062.067-.161.093-.299.016-.085.034-.184.064-.299v5.08h.551v-5.876h-.629l-1.415 4.083c0 .042-.029.121-.068.228-.052.144-.123.34-.168.569h-.079c0-.199-.078-.399-.236-.697l-1.415-4.084h-.707v5.876h.55l-.079-3.983v-1.196zM52.037 221.397c-.472 0-.865.099-1.337.099-8.963.598-14.938 5.577-18.476 15.338-2.987 8.764-2.673 20.317 0 29.081 3.145 8.664 8.256 13.246 16.746 14.939 1.809.398 2.988 1.593 6.526 6.772L59.82 294h7.783l-5.188-6.573c-2.83-3.585-5.19-6.772-5.19-7.071 0-.299 1.101-.896 2.438-1.394 4.403-1.693 8.019-5.976 10.535-12.549 2.044-5.279 2.358-6.872 2.673-13.445.786-19.521-7.312-31.671-20.834-31.571zm-6.054 52.087c3.616 1.693 9.12 1.195 12.894-1.096 5.817-3.585 8.884-12.25 8.333-23.802-.707-13.744-6.132-21.114-15.566-21.114-6.369 0-10.771 3.685-14.073 11.652-2.123 4.98-2.36 16.134-.55 22.21 1.65 5.577 5.267 10.457 8.962 12.15z" fill="#fff"/><path d="M85.607 248.088v-25.994h-5.66v57.465h23.979v-6.772h-18.24l-.079-24.699z" fill="#fff"/></g><defs><linearGradient id="b" x1="127.584" y1="180.656" x2="140.281" y2="174.734" gradientUnits="userSpaceOnUse"><stop stop-color="#909CA9"/><stop offset="1" stop-color="#EDEDEE"/></linearGradient><linearGradient id="c" x1="127.841" y1="19.059" x2="137.06" y2="19.059" gradientUnits="userSpaceOnUse"><stop stop-color="#939FAB"/><stop offset="1" stop-color="#DCDEE1"/></linearGradient><radialGradient id="d" cx="0" cy="0" r="1" gradientUnits="userSpaceOnUse" gradientTransform="matrix(-11.75467 -2.2368 5.59375 -29.39592 174.321 72.55)"><stop stop-color="#EE352C"/><stop offset="1" stop-color="#A91D22"/></radialGradient><clipPath id="a"><path fill="#fff" d="M0 0h288v294H0z"/></clipPath></defs></svg>