<svg width="288" height="294" viewBox="0 0 288 294" fill="none" xmlns="http://www.w3.org/2000/svg">
<g clip-path="url(#clip0_208_28)">
<path d="M195.046 93.6177L163.363 106.764L135.767 122.201L128.062 124.79C126.097 127.181 124.053 129.571 121.773 131.961C119.335 134.65 117.055 137.04 115.326 138.833C113.36 140.825 110.53 144.41 109.036 146.701C106.835 150.187 105.105 153.872 104.398 156.66C103.061 161.74 103.69 166.918 106.284 171.699C109.508 177.774 116.033 183.949 123.581 188.132C127.433 190.323 133.959 193.012 138.833 194.605C146.931 197.195 162.655 200.083 171.303 200.482C173.033 200.581 175.391 200.581 175.47 200.482C175.627 200.282 177.042 197.095 178.536 193.012C183.882 179.268 187.656 166.321 189.779 155.366C191.037 148.693 191.98 139.829 192.688 129.272C192.845 126.284 192.924 116.425 192.766 113.138C192.531 107.66 192.138 103.278 191.587 98.8961C191.509 98.2986 191.43 97.701 191.509 97.701C191.587 97.6014 191.902 97.5018 195.833 96.1075L195.046 93.6177ZM187.813 98.9957C188.128 98.9957 188.835 108.358 189.071 114.234C189.15 115.429 189.071 116.325 189.071 116.325C188.914 116.325 185.062 113.437 182.231 111.246C179.873 109.353 175.313 105.469 174.605 104.772C174.369 104.573 174.369 104.573 176.335 103.677C179.637 102.183 187.499 98.9957 187.813 98.9957ZM171.618 105.768C171.854 105.768 172.404 106.166 173.74 107.162C178.693 111.047 185.376 115.827 188.285 117.421C189.15 117.918 189.229 117.719 187.263 119.512C182.939 123.297 177.436 126.982 170.832 130.666C169.652 131.364 168.709 131.862 168.63 131.862C168.552 131.862 168.709 131.065 168.945 130.169C170.517 122.599 171.46 114.931 171.539 108.855C171.382 105.768 171.382 105.768 171.618 105.768ZM168.316 107.362C168.473 107.561 168.394 114.333 168.158 116.225C167.765 120.608 167.058 124.79 165.957 129.471C165.721 130.567 165.485 131.563 165.407 131.563C165.328 131.762 162.026 127.679 160.925 126.085C159.038 123.396 157.623 120.608 156.523 117.918C155.972 116.524 155.107 113.835 155.186 113.835C155.579 113.437 168.237 107.262 168.316 107.362ZM152.67 115.13C152.828 115.229 152.985 115.727 153.063 116.225C153.85 118.914 155.579 122.799 157.073 125.189C158.724 127.878 160.847 130.866 162.576 132.758C163.127 133.355 163.677 133.953 163.756 134.053C163.913 134.252 163.913 134.252 160.061 136.045C155.501 138.236 150.626 140.427 144.966 142.717C143.629 143.315 142.292 143.813 140.956 144.41C140.72 144.51 140.799 144.311 141.428 143.116C144.258 137.538 148.503 126.683 150.862 118.914C151.255 117.62 151.648 116.225 151.727 115.927C151.805 115.528 151.963 115.329 152.277 115.13C152.434 115.229 152.592 115.13 152.67 115.13ZM147.874 117.62C147.953 117.719 146.695 120.906 145.516 123.894C143.157 129.671 140.641 135.248 137.261 142.12C136.71 143.315 136.16 144.41 136.081 144.51C135.924 144.709 135.924 144.709 135.531 143.713C134.745 141.721 134.037 139.032 133.723 136.642C133.33 134.252 133.408 130.168 133.88 127.579C134.195 125.687 134.195 125.687 134.902 125.288C137.811 123.396 147.717 117.52 147.874 117.62ZM189.15 119.811V121.105C189.15 127.878 188.6 137.14 187.735 143.912C187.578 145.108 187.499 146.103 187.42 146.103C187.42 146.103 186.713 145.904 185.927 145.605C182.31 144.211 178.458 142.12 174.92 139.63C172.561 138.036 169.18 135.347 169.338 135.248C169.338 135.248 170.36 134.551 171.539 133.754C176.256 130.666 180.738 127.28 184.669 123.994C186.162 122.799 188.364 120.707 188.835 120.209L189.15 119.811ZM129.792 128.774C129.87 128.774 129.87 128.973 129.713 130.069C129.635 130.866 129.477 132.36 129.477 133.355C129.32 137.738 129.87 141.024 131.6 145.506C132.072 146.701 132.465 147.797 132.465 147.797C132.308 147.996 116.426 153.872 111.473 155.565C109.98 156.063 108.722 156.561 108.564 156.561C108.407 156.66 108.407 156.561 108.407 156.063C108.958 151.581 111.631 145.805 115.404 140.825C117.92 137.538 119.886 135.646 123.266 133.156C125.704 131.563 129.399 128.874 129.792 128.774C129.713 128.774 129.713 128.774 129.792 128.774ZM167.136 137.24C167.136 137.24 167.765 137.638 168.394 138.136C173.505 141.921 180.659 145.406 186.713 147.199L187.263 147.398L186.477 147.896C183.253 150.187 172.797 155.664 162.105 160.744C160.532 161.441 159.038 162.238 158.724 162.337C158.41 162.536 158.174 162.536 158.174 162.536C158.174 162.536 158.567 161.441 159.117 160.146C162.105 153.075 165.092 144.41 166.665 138.435C166.979 137.738 167.136 137.24 167.136 137.24ZM163.363 138.833C163.363 138.833 163.205 139.53 162.97 140.227C160.847 146.601 158.174 153.573 154.636 161.441C153.771 163.433 152.985 165.026 152.985 165.026C152.985 165.026 152.277 164.528 151.412 163.831C146.302 159.847 141.821 155.067 138.912 150.286L138.519 149.589L140.72 148.792C148.503 146.103 155.186 143.215 161.79 139.63C162.498 139.232 163.284 138.833 163.363 138.833ZM187.027 149.29C187.027 149.988 185.848 156.262 184.826 160.744C183.961 164.528 183.253 167.516 181.917 172.795C181.367 175.085 180.816 176.977 180.816 176.977C180.816 176.977 180.659 176.977 180.502 176.878C173.426 175.284 166.979 172.994 161.004 169.906C159.353 169.01 156.916 167.715 156.758 167.516C156.68 167.416 158.174 166.62 159.982 165.624C170.91 159.549 182.153 152.776 186.084 149.788C186.556 149.49 186.949 149.29 187.027 149.29ZM132.386 151.681C132.465 151.78 129.399 157.258 125.153 164.827C123.659 167.516 121.93 170.603 121.301 171.699C120.672 172.894 119.65 174.687 119.099 175.782L118.077 177.774L116.977 176.579C115.719 175.284 113.517 172.396 112.495 170.803C110.451 167.516 109.036 164.13 108.486 161.042C108.25 159.549 108.25 158.851 108.486 158.752C108.879 158.652 115.247 156.76 121.222 154.967C124.524 153.971 128.377 152.876 129.792 152.378C131.207 151.979 132.308 151.681 132.386 151.681ZM135.452 153.175L136.239 154.27C139.698 159.15 143.236 162.736 147.481 165.923C148.268 166.421 148.818 166.919 148.739 167.018C148.582 167.217 133.959 173.79 127.119 176.679C123.345 178.372 120.2 179.766 120.122 179.766L119.65 179.368L119.257 178.969L119.964 177.675C122.244 173.591 125.075 169.01 131.207 159.648L135.452 153.175ZM154.557 170.504C154.557 170.504 155.658 171.002 156.916 171.599C160.061 173.093 162.498 173.99 165.8 175.085C169.888 176.38 175.785 177.675 179.244 178.073C179.794 178.173 180.03 178.173 179.951 178.272C179.794 178.372 176.256 179.866 173.662 180.961C169.574 182.555 156.994 187.335 146.695 191.02C144.808 191.717 143.157 192.315 143.079 192.315C142.843 192.414 142.057 192.116 142.057 192.016C142.057 191.916 142.607 191.02 143.314 190.024C146.774 184.845 150.154 178.969 153.063 173.492C153.85 171.699 154.557 170.504 154.557 170.504ZM150.312 170.603C150.312 170.603 148.661 174.089 145.673 180.065C144.415 182.555 143 185.443 142.45 186.439C141.978 187.435 141.27 188.929 140.877 189.825L140.17 191.419L139.777 191.319C138.912 191.02 132.858 188.331 131.286 187.534C129.32 186.538 127.276 185.343 125.704 184.248C123.817 182.953 121.379 180.961 121.615 180.961C121.694 180.961 124.917 179.766 128.927 178.471C139.383 174.886 145.201 172.794 149.054 171.201C149.683 170.803 150.312 170.603 150.312 170.603ZM180.109 179.467C180.266 179.766 176.335 193.41 174.92 197.693C174.605 198.689 174.527 198.888 174.291 198.888C173.898 198.888 168.237 197.892 164.856 197.195C158.881 196 148.897 193.809 146.381 193.112L145.83 192.912L149.368 191.916C157.073 189.725 160.69 188.53 164.463 187.136C169.18 185.343 173.819 183.053 178.536 180.264C179.322 179.866 179.951 179.467 180.109 179.467Z" fill="url(#paint0_linear_208_28)"/>
<path d="M162.341 0.0995337C161.79 -5.9828e-05 153.299 3.88408 147.796 6.6727C140.406 10.4573 134.666 14.1422 131.128 17.3292C129.792 18.5243 128.141 20.6158 127.905 21.4125C127.826 21.7113 127.748 22.1097 127.748 22.4085L130.971 26.2926L138.597 29.38L156.759 33.4634L177.514 37.9451L177.75 35.6544H177.593L174.841 35.1564L174.291 33.9613C171.46 27.6869 168.316 19.819 166.507 14.5406C165.092 10.4573 163.756 5.67677 163.048 2.29059C162.655 0.199124 162.576 0.0995337 162.341 0.0995337ZM161.947 1.59344C162.026 1.59344 162.105 2.48978 162.183 3.48571C162.576 7.76823 163.363 11.8516 164.542 16.2337C165.407 19.6199 165.407 19.4207 164.385 19.0223C161.947 18.126 151.019 15.7357 143.079 14.3414C141.821 14.1422 140.72 13.943 140.72 13.8434C140.641 13.7438 146.459 9.8597 148.975 8.3658C152.277 6.47352 161.318 1.79262 161.947 1.59344ZM138.833 15.2377L139.777 15.6361C144.887 17.8272 157.623 20.9146 164.699 21.6117C165.485 21.7113 166.193 21.8109 166.193 21.8109C166.193 21.8109 165.564 22.3089 164.699 22.8069C161.318 24.9979 157.545 27.5873 154.95 29.6788C154.164 30.2764 153.456 30.7743 153.378 30.7743C153.299 30.7743 152.749 30.6747 152.277 30.5751L151.334 30.3759L148.975 27.3881C144.73 22.2093 141.428 18.2255 140.17 16.6321L138.833 15.2377ZM137.89 16.1341L141.27 21.5121C143.079 24.4999 144.966 27.2886 145.359 27.9857C145.752 28.5833 146.066 29.1808 146.066 29.1808C145.988 29.2804 141.192 28.0853 138.676 27.3881C136.081 26.5914 134.981 26.2926 133.408 25.5955L132.072 25.0975V24.6991C132.072 22.7073 134.116 19.6199 137.575 16.5325L137.89 16.1341ZM166.586 23.4044C166.665 23.4044 166.822 23.7032 167.058 24.4999C167.844 26.7906 170.438 32.8658 171.067 34.0609C171.225 34.4593 171.618 34.4593 168.237 33.7621C160.139 32.069 157.545 31.5711 157.545 31.4715C157.545 31.4715 157.781 31.2723 158.095 30.9735C160.611 29.1808 163.127 26.9898 165.407 24.5995C165.957 24.002 166.429 23.504 166.586 23.4044Z" fill="url(#paint1_linear_208_28)"/>
<path d="M128.062 20.9146C128.062 20.9146 127.512 22.0101 128.062 23.6036C128.377 24.5995 129.32 25.7946 130.342 26.9898C130.342 26.9898 141.034 40.1361 142.292 42.0284C148.189 50.693 150.783 59.1585 151.019 70.8109C151.176 78.38 150.076 84.9532 147.245 92.6219C142.292 106.366 131.757 121.604 115.562 138.435L117.92 137.439C119.414 135.945 121.537 134.451 126.411 131.065C137.732 123.197 150.39 116.026 165.957 108.656C188.364 97.9999 225.237 85.4511 246.228 81.3678L248.429 80.9694L248.115 80.2723C246.228 76.4877 244.892 74.1971 243.319 71.7072C238.759 64.4369 233.177 58.6605 226.337 53.7804C216.981 47.1076 204.795 41.9288 189.386 38.0446C186.477 37.3475 180.109 35.9532 174.92 34.9572C163.913 32.7662 156.837 31.2723 149.054 29.5792C146.223 28.9816 142.057 28.0853 139.305 27.2885C137.89 26.8902 135.138 26.0934 132.937 25.0975C131.05 24.4003 128.613 23.504 128.062 20.9146ZM134.273 28.5833C134.273 28.5833 134.666 28.7824 135.217 28.9816C136.16 29.38 137.339 29.878 138.676 30.2763C139.698 30.6747 140.799 30.9735 141.821 31.3719C143.236 31.8698 144.494 32.2682 144.494 32.2682C144.651 32.4674 147.088 42.3272 147.874 46.0121C148.189 47.4064 148.425 48.7011 148.425 48.7011C148.425 48.7011 148.11 48.2032 147.796 47.506C144.965 41.2316 140.563 34.9572 135.452 29.7784C134.745 29.0812 134.273 28.5833 134.273 28.5833ZM146.066 32.6666C146.223 32.6666 146.695 32.7662 147.324 32.9654C151.412 34.1605 158.724 35.8536 163.363 36.8495C164.149 37.0487 164.778 37.1483 164.778 37.2479C164.778 37.3475 164.463 37.5467 164.149 37.7459C163.363 38.2438 160.139 40.6341 159.117 41.5304C156.444 43.8211 154.085 46.2113 152.356 48.4024L151.098 49.9959C151.098 49.9959 150.941 49.4979 150.862 48.8007C149.997 44.6178 148.189 38.3434 146.538 33.9613C146.223 33.3637 145.988 32.6666 146.066 32.6666C145.988 32.6666 145.988 32.6666 146.066 32.6666ZM166.743 37.6463C166.9 37.7458 167.136 38.7418 167.608 41.0324C168.473 45.4146 168.866 50.3942 168.787 54.9755C168.709 56.2702 168.709 57.4654 168.63 57.565L168.552 57.8637L167.294 57.3658C164.699 56.3698 160.532 54.7763 156.994 53.4816C154.95 52.7845 153.299 52.1869 153.299 52.0873C153.299 51.8881 156.287 48.1036 157.545 46.7093C159.982 44.0202 166.586 37.5467 166.743 37.6463ZM168.394 37.945C168.473 37.8454 178.3 40.0365 182.782 41.132C186.084 41.9288 190.958 43.2235 191.273 43.4227C191.43 43.5223 190.88 43.8211 189.307 44.7174C183.018 48.3028 178.3 51.5894 173.583 55.4735C172.325 56.4694 171.303 57.3658 171.303 57.3658C171.303 57.3658 171.225 56.4694 171.225 55.4735C171.225 49.6971 170.281 43.9206 168.63 38.941C168.552 38.443 168.394 38.0446 168.394 37.945ZM193.867 44.319C193.946 44.4186 193.631 46.9084 193.317 48.3028C192.452 52.7845 190.093 59.5568 187.263 65.8312C186.791 66.9267 186.32 67.8231 186.241 67.9227C186.162 67.9227 185.533 67.5243 184.826 66.9268C182.074 64.8353 178.851 62.943 175.47 61.1503C174.527 60.6524 173.662 60.254 173.662 60.1544C173.505 59.9552 181.209 53.4816 185.298 50.3942C188.521 47.9044 193.789 44.2194 193.867 44.319ZM195.675 44.7174C195.911 44.7174 200.235 46.2113 202.515 47.1076C208.176 49.1991 214.623 52.1869 218.79 54.6767L220.519 55.6727L219.261 56.0711C208.962 59.0589 200.157 62.5446 191.666 66.9268C190.958 67.3251 190.329 67.6239 190.329 67.6239C190.251 67.6239 190.487 66.9267 190.801 66.0304C193.395 59.1584 195.046 51.9877 195.44 45.8129C195.597 45.2154 195.675 44.7174 195.675 44.7174ZM152.277 57.3658C152.356 57.2662 155.658 58.2621 157.466 58.9593C160.218 59.9552 165.957 62.3454 165.957 62.5446C165.957 62.5446 165.328 63.2418 164.542 64.1381C161.397 67.4247 158.41 70.9105 154.793 75.3922C153.692 76.6869 152.828 77.7824 152.749 77.7824C152.67 77.7824 152.67 77.5833 152.67 77.3841C153.221 72.3048 153.063 65.7316 152.356 59.0589C152.356 58.0629 152.277 57.3658 152.277 57.3658ZM222.249 57.4654C222.328 57.565 220.677 60.6524 219.733 62.445C218.318 65.0345 216.195 68.5202 211.399 76.0893C208.884 80.0731 206.053 84.6544 205.11 86.1483C204.166 87.6422 203.38 88.9369 203.302 88.9369C203.302 88.9369 202.987 88.4389 202.594 87.7418C199.921 82.6625 196.697 78.1808 192.924 74.1971C192.216 73.4003 191.43 72.6036 191.115 72.4044C190.88 72.2052 190.644 71.9064 190.644 71.9064C190.644 71.8068 194.732 69.6158 197.798 68.0223C203.223 65.2337 210.613 61.8475 216.117 59.756C219.104 58.4613 222.249 57.3658 222.249 57.4654ZM224.136 58.0629C224.215 58.0629 224.843 58.3617 225.472 58.9593C231.29 63.1422 237.03 68.6198 241.511 74.1971C242.769 75.7906 245.914 79.8739 245.835 79.9735C245.835 79.9735 244.734 80.0731 243.476 80.1727C233.413 81.1686 220.519 83.8576 208.097 87.6422C207.233 87.8414 206.525 88.1402 206.446 88.1402C206.368 88.1402 207.311 86.945 208.491 85.5507C215.802 76.6869 219.104 71.0101 223.035 61.0507C223.586 59.3576 224.057 58.1625 224.136 58.0629C224.057 58.0629 224.057 58.0629 224.136 58.0629ZM170.753 64.9349C171.067 65.0345 174.212 66.9267 176.571 68.3211C178.694 69.7154 181.996 71.9064 182.153 72.006C182.153 72.006 181.052 72.8028 179.637 73.6991C175.156 76.5873 171.303 79.2763 167.215 82.3637C166.036 83.2601 165.092 83.9572 165.092 83.9572C165.014 83.9572 165.014 83.8576 165.643 82.3637C167.765 77.3841 169.495 71.4085 170.517 65.632C170.596 65.2337 170.674 64.9349 170.753 64.9349ZM167.687 65.7316C167.765 65.8312 166.979 69.5162 166.429 71.6076C165.485 75.4918 163.756 80.2723 162.183 83.9572C161.79 84.8536 161.24 86.0487 160.925 86.7459L160.296 87.941L158.96 86.3475C157.387 84.4552 156.13 83.2601 154.479 82.1645C153.85 81.7662 153.299 81.3678 153.299 81.2682C153.299 81.069 157.387 76.2885 160.532 72.9024C162.812 70.4125 167.608 65.632 167.687 65.7316ZM186.713 75.5914L187.892 76.5873C190.565 78.7784 193.71 81.7662 196.147 84.3556C197.484 85.7499 200.157 88.7377 200.707 89.5345L201.022 89.9328L199.056 90.63C188.049 94.5141 179.637 97.9003 169.731 102.482C168.63 102.98 167.687 103.378 167.608 103.378C167.451 103.378 167.372 103.577 169.809 100.689C176.099 93.319 181.76 85.1524 185.927 77.2845L186.713 75.5914ZM181.681 77.1849C181.76 77.2845 178.458 83.0609 176.492 86.4471C174.134 90.4308 169.967 97.004 167.136 101.287C165.957 103.079 164.935 104.573 164.856 104.573C164.778 104.573 164.778 104.175 164.778 103.478C164.778 99.7926 164.07 95.9085 162.734 92.5223C162.183 91.128 162.105 90.8292 162.183 90.63C162.655 90.132 169.574 85.0528 174.055 82.065C176.964 80.0731 181.602 77.0853 181.681 77.1849ZM151.412 86.5467C151.491 86.5467 152.041 86.945 152.67 87.3434C154.164 88.4389 155.579 89.6341 156.759 90.8292C156.837 90.9288 156.208 91.5263 155.343 92.3231C153.063 94.4146 149.604 97.7011 147.639 99.693C145.516 101.784 145.437 101.884 145.673 101.386C147.245 98.2987 148.032 96.6056 148.896 94.4145C149.604 92.4227 150.39 90.132 150.941 88.0406C151.098 87.2438 151.334 86.5467 151.412 86.5467ZM159.51 94.6137C159.667 94.6137 159.746 94.8129 160.454 96.1076C161.79 98.6971 162.891 102.183 163.127 104.971L163.205 105.569L159.903 107.163C154.007 110.051 148.582 112.939 144.966 115.03C143.943 115.628 142.135 116.723 140.956 117.421C139.777 118.217 138.833 118.715 138.833 118.715C138.833 118.715 139.541 118.018 140.484 117.122C147.639 110.549 153.85 103.278 158.488 96.1076C158.96 95.3109 159.432 94.6137 159.51 94.6137ZM155.815 95.7093C155.894 95.8089 153.142 99.7926 151.334 102.183C146.695 108.158 142.135 112.839 136.475 117.421C135.767 118.018 135.138 118.516 135.059 118.616C134.902 118.715 135.138 118.417 137.575 115.03C139.148 112.839 140.327 111.047 141.742 108.856C142.686 107.362 142.843 107.163 144.101 105.967C147.56 102.581 155.658 95.6097 155.815 95.7093Z" fill="url(#paint2_radial_208_28)"/>
<path fill-rule="evenodd" clip-rule="evenodd" d="M193.395 238.029C190.093 238.029 187.656 239.722 185.927 243.008L184.59 245.598V238.825H178.929V279.559H184.59V266.512C184.59 254.561 184.669 253.167 186.005 249.98C187.813 245.498 190.958 243.307 193.946 244.303L195.99 245V237.929L193.395 238.029ZM160.218 237.63C159.117 237.63 157.938 237.829 156.758 238.128C149.211 240.618 144.965 249.781 145.201 259.242C145.201 267.11 146.381 271.094 149.447 275.277C155.579 281.651 161.161 282.149 168.709 278.762C169.967 278.065 171.382 277.268 171.382 277.268V270.895L168.709 272.687C162.655 276.073 158.016 276.073 154.321 272.09C151.963 269.102 150.941 265.417 150.469 261.334H173.269V255.856C173.269 244.602 167.923 237.531 160.218 237.63ZM151.019 255.557C151.019 255.557 151.884 248.586 154.95 245.797C156.444 244.502 158.174 243.805 159.903 243.805C161.633 243.805 163.284 244.502 164.699 245.897C167.529 248.685 168.08 255.557 168.08 255.557H151.019ZM14.6921 248.187C8.55971 243.506 5.80801 240.12 6.20111 236.136C7.14455 225.082 17.9155 226.575 23.8906 230.758L23.9692 223.289C23.9692 223.289 20.6672 221.496 15.95 221.397C8.71695 221.297 3.99975 224.285 1.79838 230.46C-1.42504 239.523 1.40529 246.395 11.7831 253.964C17.601 258.246 20.1955 261.931 20.1955 266.014C20.1955 274.38 12.2549 277.269 3.99975 272.09C2.27011 270.994 0.854948 270.098 0.776328 270.098C0.461848 272.488 0.619084 278.165 0.619084 278.165C0.619084 278.165 3.13493 279.46 6.90869 280.455C16.3431 282.846 24.8341 277.269 25.6989 268.206C26.3278 259.64 23.8906 255.159 14.6921 248.187ZM243.476 237.63C242.376 237.63 241.196 237.829 240.017 238.128C232.47 240.618 228.224 249.781 228.46 259.242C228.46 267.11 229.639 271.094 232.705 275.177C238.838 281.551 244.42 282.149 252.046 278.663C253.304 277.966 254.719 277.169 254.719 277.169V270.795L252.046 272.588C245.914 275.974 241.354 275.974 237.659 271.99C235.3 269.002 234.278 265.417 233.806 261.234H256.527V255.756C256.527 244.502 251.181 237.431 243.476 237.63ZM234.199 255.458C234.199 255.458 235.064 248.486 238.13 245.697C239.624 244.303 241.354 243.705 243.005 243.705C244.656 243.705 246.385 244.403 247.801 245.797C250.631 248.586 251.181 255.458 251.181 255.458H234.199ZM130.578 248.287C124.446 243.606 121.773 240.22 122.087 236.236C123.03 225.181 133.801 226.675 139.777 230.858L139.855 223.388C139.855 223.388 136.553 221.596 131.836 221.496C124.603 221.397 119.886 224.384 117.684 230.559C114.461 239.622 117.37 246.494 127.669 254.063C133.487 258.346 136.003 262.031 136.003 266.014C136.003 274.38 128.062 277.368 119.807 272.09C118.156 270.994 116.662 270.098 116.584 270.098C116.269 272.488 116.426 278.165 116.426 278.165C116.426 278.165 118.942 279.46 122.716 280.455C132.15 282.846 140.641 277.269 141.506 268.206C142.214 259.74 139.777 255.258 130.578 248.287ZM276.654 237.929C273.352 237.929 270.836 239.622 269.185 242.909L267.849 245.498V238.726H262.188V279.46H267.849V266.512C267.849 254.561 267.927 253.167 269.264 249.98C271.072 245.498 274.217 243.307 277.204 244.403L279.249 245.1V238.029L276.654 237.929ZM217.453 256.155L212.736 271.592L208.255 256.055L203.695 238.825H197.877C201.651 252.37 205.739 266.214 209.906 279.559C211.111 279.626 212.317 279.603 213.522 279.581C214.125 279.57 214.728 279.559 215.33 279.559L221.699 259.342L228.146 238.726H222.563C222.485 238.825 220.048 246.992 217.453 256.155ZM98.8155 206.458C99.759 206.458 100.467 206.059 101.096 205.262C101.724 204.466 102.039 203.569 102.039 202.374C102.039 201.179 101.724 200.283 101.096 199.486C100.467 198.789 99.759 198.39 98.8155 198.39C97.8721 198.39 97.0859 198.789 96.5355 199.586C95.9066 200.382 95.5921 201.378 95.5921 202.474C95.5921 203.669 95.9066 204.665 96.5355 205.362C97.0859 206.059 97.8721 206.458 98.8155 206.458ZM96.7714 199.785C97.3217 199.088 97.9507 198.789 98.8155 198.789C99.6017 198.789 100.309 199.088 100.86 199.785C101.41 200.482 101.724 201.279 101.724 202.374C101.724 203.37 101.41 204.266 100.86 204.964C100.309 205.661 99.6017 205.96 98.8155 205.96C98.0293 205.96 97.3217 205.661 96.7714 204.964C96.2211 204.266 95.9066 203.37 95.9066 202.374C95.9852 201.378 96.2211 200.482 96.7714 199.785ZM98.1079 202.773H98.5011C98.7369 202.773 99.0514 203.071 99.2086 203.669L99.6804 204.964H100.388L99.8376 203.569C99.6017 202.972 99.3659 202.673 99.13 202.573C99.4445 202.474 99.6804 202.374 99.9162 202.075C100.073 201.876 100.152 201.478 100.152 201.179C100.152 200.781 100.073 200.482 99.8376 200.183C99.6017 199.884 99.2086 199.785 98.6583 199.785H97.479V204.964H98.0293L98.1079 202.773ZM98.1079 200.382H98.6583C99.0514 200.382 99.2872 200.482 99.4445 200.581C99.6017 200.681 99.6017 200.88 99.6017 201.279C99.6017 201.876 99.2873 202.175 98.7369 202.175H98.1079V200.382ZM3.99975 202.275C3.99975 201.199 3.97145 200.267 3.9488 199.521C3.93371 199.024 3.92113 198.61 3.92113 198.291C4.07837 199.187 4.23561 199.884 4.39285 200.382L9.89625 215.819H10.8397L16.3431 200.183C16.5003 199.785 16.6576 199.088 16.8148 198.191H16.8934C16.8791 198.482 16.8648 198.762 16.8509 199.034C16.7888 200.25 16.7362 201.279 16.7362 202.175V215.819H18.6231V195.502H16.2645L11.1542 209.744C11.0795 210.028 10.9694 210.356 10.8407 210.741C10.6983 211.166 10.5331 211.659 10.368 212.234H10.2894C10.233 211.805 10.0552 211.274 9.84311 210.64C9.75955 210.391 9.67066 210.125 9.58177 209.844L4.62871 195.602H2.11287V215.919H3.92113L3.99975 202.275ZM22.6327 202.374H24.2837V215.023H22.6327V202.374ZM23.4189 197.693C23.7334 197.693 24.0479 197.594 24.2837 197.295C24.5196 196.996 24.6768 196.697 24.6768 196.199C24.6768 195.801 24.5982 195.403 24.2837 195.104C24.0479 194.805 23.7334 194.705 23.4189 194.705C23.1044 194.705 22.7899 194.805 22.5541 195.104C22.3182 195.403 22.161 195.801 22.161 196.199C22.161 196.697 22.2396 196.996 22.5541 197.295C22.7899 197.594 23.1044 197.693 23.4189 197.693ZM35.7623 215.222V213.031C34.8974 213.827 33.954 214.325 32.9319 214.325C31.7526 214.325 30.8092 213.827 30.1016 212.832C29.394 211.836 29.0009 210.541 29.0009 208.848C29.0009 207.055 29.394 205.661 30.1016 204.665C30.8092 203.669 31.8312 203.171 32.9319 203.171C33.8754 203.171 34.8188 203.569 35.6836 204.266V201.777C34.8974 201.279 34.0326 201.079 33.0106 201.079C31.2023 201.079 29.7085 201.777 28.6864 203.271C27.6644 204.665 27.114 206.657 27.114 209.047C27.114 211.138 27.5858 212.931 28.6078 214.226C29.6299 215.62 30.9664 216.317 32.5388 216.317C33.8754 216.218 34.8974 215.919 35.7623 215.222ZM40.4008 208.549C40.4008 206.856 40.7153 205.561 41.2657 204.565C41.816 203.768 42.3663 203.271 43.1525 203.271C43.7815 203.271 44.2532 203.37 44.5677 203.769V201.378C44.3318 201.279 43.9387 201.179 43.467 201.179C42.8381 201.179 42.2091 201.478 41.7374 201.976C41.187 202.573 40.7153 203.37 40.4795 204.466H40.4008V201.478H38.5926V216.018H40.4008V208.549ZM50.9359 216.218C52.6656 216.218 54.0807 215.521 55.1028 214.126C56.1248 212.732 56.6752 210.84 56.6752 208.549C56.6752 206.159 56.2035 204.366 55.26 202.972C54.3166 201.577 52.98 200.98 51.2504 200.98C49.5208 200.98 48.1056 201.677 47.0835 202.872C45.9829 204.266 45.4325 206.258 45.4325 208.748C45.4325 210.939 45.9042 212.732 46.9263 214.126C47.8697 215.521 49.2063 216.218 50.9359 216.218ZM48.3415 204.466C49.049 203.569 49.9925 203.071 51.0932 203.071C52.2725 203.071 53.1373 203.569 53.8449 204.466C54.4738 205.462 54.8669 206.856 54.8669 208.649C54.8669 210.441 54.5524 211.836 53.9235 212.732C53.2945 213.728 52.3511 214.226 51.1718 214.226C49.9925 214.226 49.049 213.728 48.3415 212.732C47.6339 211.736 47.3194 210.441 47.3194 208.649C47.2408 206.856 47.5553 205.462 48.3415 204.466ZM64.6158 215.023C65.3234 214.226 65.7165 213.23 65.7165 212.035C65.7165 210.939 65.402 210.043 64.8517 209.346C64.3799 208.748 63.751 208.25 62.7289 207.752C61.8641 207.254 61.3138 206.856 60.9993 206.557C60.6848 206.159 60.5276 205.76 60.5276 205.063C60.5276 204.466 60.6848 203.968 61.0779 203.669C61.471 203.271 61.9427 203.071 62.5717 203.071C63.5938 203.071 64.38 203.37 65.1662 204.067V201.777C64.4586 201.279 63.5937 201.079 62.7289 201.079C61.5496 201.079 60.5276 201.478 59.82 202.275C59.0338 203.071 58.7193 204.067 58.7193 205.262C58.7193 206.358 58.9552 207.254 59.4269 207.852C59.82 208.449 60.5276 208.947 61.471 209.445C62.4145 209.943 63.0434 210.441 63.3579 210.84C63.6724 211.238 63.8296 211.636 63.8296 212.234C63.8296 213.628 63.122 214.325 61.6283 214.325C60.5276 214.325 59.5055 213.827 58.6407 212.931V215.421C59.4269 216.019 60.3703 216.317 61.471 216.317C62.8076 216.218 63.9082 215.819 64.6158 215.023ZM73.3426 201.079C71.613 201.079 70.1978 201.777 69.1758 202.972C68.0751 204.366 67.5248 206.358 67.5248 208.848C67.5248 211.039 67.9965 212.832 69.0185 214.226C70.0406 215.62 71.3771 216.317 73.1068 216.317C74.8364 216.317 76.2516 215.62 77.2736 214.226C78.2957 212.832 78.846 210.939 78.846 208.649C78.846 206.258 78.3743 204.466 77.4309 203.071C76.4088 201.677 75.0723 201.079 73.3426 201.079ZM76.9592 208.649C76.9592 210.441 76.6447 211.836 76.0157 212.732C75.3868 213.728 74.4433 214.226 73.264 214.226C72.0847 214.226 71.1413 213.728 70.4337 212.732C69.7261 211.736 69.4116 210.441 69.4116 208.649C69.4116 206.756 69.8047 205.362 70.5123 204.366C71.2199 203.47 72.1633 202.972 73.264 202.972C74.3647 202.972 75.3081 203.47 75.9371 204.366C76.6447 205.362 76.9592 206.756 76.9592 208.649ZM81.9122 215.919H83.7205V203.37H86.3936V201.378H83.7205V199.187C83.7205 197.195 84.3494 196.1 85.6074 196.1C86.0791 196.1 86.4722 196.199 86.7867 196.498V194.407C86.4722 194.208 86.0005 194.208 85.4501 194.208C84.4281 194.208 83.6419 194.606 83.0129 195.403C82.2267 196.299 81.8336 197.494 81.8336 199.187V201.577H79.8681V203.569H81.8336L81.9122 215.919ZM89.4597 211.935C89.4597 214.724 90.4818 216.218 92.4473 216.218C93.1549 216.218 93.7052 216.118 94.1769 215.72V213.728C93.8625 214.027 93.4694 214.226 92.9976 214.226C92.3687 214.226 91.9756 214.027 91.6611 213.628C91.4252 213.23 91.268 212.533 91.268 211.537V203.37H94.1769V201.378H91.268V197.096C90.7755 197.33 90.283 197.503 89.8282 197.662C89.7022 197.706 89.5791 197.75 89.4597 197.793V201.279H87.4942V203.271H89.4597V211.935ZM286.403 238.726C285.774 238.029 285.066 237.63 284.123 237.63C283.18 237.63 282.393 238.029 281.843 238.825C281.214 239.622 280.9 240.618 280.9 241.714C280.9 242.909 281.214 243.805 281.843 244.602C282.472 245.299 283.258 245.697 284.123 245.697C285.066 245.697 285.774 245.299 286.403 244.502C287.032 243.705 287.346 242.809 287.346 241.614C287.425 240.419 287.032 239.423 286.403 238.726ZM286.167 244.203C285.617 244.901 284.988 245.199 284.123 245.199C283.337 245.199 282.629 244.901 282.079 244.203C281.529 243.506 281.214 242.61 281.214 241.614C281.214 240.618 281.45 239.722 282 239.025C282.551 238.327 283.18 238.029 284.044 238.029C284.831 238.029 285.538 238.327 286.088 239.025C286.639 239.722 286.953 240.618 286.953 241.614C286.953 242.61 286.717 243.506 286.167 244.203ZM284.516 241.813C284.831 241.714 285.066 241.514 285.302 241.315C285.46 241.116 285.538 240.718 285.538 240.419C285.538 240.021 285.46 239.722 285.224 239.423C284.988 239.124 284.595 239.025 284.044 239.025H282.865V244.203H283.415V242.012H283.809C284.044 242.012 284.28 242.311 284.516 242.909L284.988 244.203H285.695L285.145 242.809C284.909 242.212 284.673 241.913 284.516 241.813ZM284.123 241.315H283.494V239.622H284.044C284.437 239.622 284.673 239.722 284.831 239.821C284.988 239.921 284.988 240.12 284.988 240.518C284.909 241.116 284.673 241.315 284.123 241.315ZM181.681 200.781H182.231V195.602H183.568V194.905H180.345V195.602H181.681V200.781ZM184.747 195.701C184.747 196 184.826 196.199 184.904 196.299L186.477 200.781H186.713L188.285 196.299C188.334 196.237 188.352 196.138 188.378 196C188.394 195.915 188.412 195.816 188.442 195.701V200.781H188.993V194.905H188.364L186.949 198.988C186.949 199.03 186.92 199.109 186.881 199.216C186.829 199.36 186.758 199.556 186.713 199.785H186.634C186.634 199.586 186.556 199.386 186.398 199.088L184.983 195.004H184.276V200.88H184.826L184.747 196.897V195.701Z" fill="white"/>
<path fill-rule="evenodd" clip-rule="evenodd" d="M52.0366 221.397C51.5649 221.397 51.1718 221.496 50.7001 221.496C41.7374 222.094 35.7623 227.073 32.2243 236.834C29.2368 245.598 29.5513 257.151 32.2243 265.915C35.3692 274.579 40.4795 279.161 48.9704 280.854C50.7787 281.252 51.958 282.447 55.4959 287.626L59.82 294H67.6034L62.4145 287.427C59.5841 283.842 57.2255 280.655 57.2255 280.356C57.2255 280.057 58.3262 279.46 59.6628 278.962C64.0655 277.269 67.682 272.986 70.1978 266.413C72.242 261.134 72.5564 259.541 72.8709 252.968C73.6571 233.447 65.5593 221.297 52.0366 221.397ZM45.9829 273.484C49.5994 275.177 55.1028 274.679 58.8765 272.388C64.6944 268.803 67.7606 260.138 67.2103 248.586C66.5027 234.842 61.0779 227.472 51.6435 227.472C45.2753 227.472 40.8726 231.157 37.5705 239.124C35.4478 244.104 35.2119 255.258 37.0202 261.334C38.6712 266.911 42.2877 271.791 45.9829 273.484Z" fill="white"/>
<path d="M85.6074 248.088V222.094H79.9467V279.559H103.926V272.787H85.686L85.6074 248.088Z" fill="white"/>
</g>
<defs>
<linearGradient id="paint0_linear_208_28" x1="127.584" y1="180.656" x2="140.281" y2="174.734" gradientUnits="userSpaceOnUse">
<stop stop-color="#909CA9"/>
<stop offset="1" stop-color="#EDEDEE"/>
</linearGradient>
<linearGradient id="paint1_linear_208_28" x1="127.841" y1="19.0591" x2="137.06" y2="19.0591" gradientUnits="userSpaceOnUse">
<stop stop-color="#939FAB"/>
<stop offset="1" stop-color="#DCDEE1"/>
</linearGradient>
<radialGradient id="paint2_radial_208_28" cx="0" cy="0" r="1" gradientUnits="userSpaceOnUse" gradientTransform="translate(174.321 72.5502) rotate(-169.226) scale(11.9656 29.9234)">
<stop stop-color="#EE352C"/>
<stop offset="1" stop-color="#A91D22"/>
</radialGradient>
<clipPath id="clip0_208_28">
<rect width="288" height="294" fill="white"/>
</clipPath>
</defs>
</svg>
