<svg width="130" height="130" viewBox="0 0 130 130" fill="none" xmlns="http://www.w3.org/2000/svg">
<path d="M56.3711 56.7812V57.7969L50.4824 71H48.5781L54.457 58.2656H46.7617V56.7812H56.3711ZM67.3574 62.7578V64.9258C67.3574 66.0911 67.2533 67.0742 67.0449 67.875C66.8366 68.6758 66.5371 69.3203 66.1465 69.8086C65.7559 70.2969 65.2839 70.6517 64.7305 70.873C64.1836 71.0879 63.5651 71.1953 62.875 71.1953C62.3281 71.1953 61.8236 71.127 61.3613 70.9902C60.8991 70.8535 60.4824 70.6354 60.1113 70.3359C59.7467 70.0299 59.4342 69.6328 59.1738 69.1445C58.9134 68.6562 58.7148 68.0638 58.5781 67.3672C58.4414 66.6706 58.373 65.8568 58.373 64.9258V62.7578C58.373 61.5924 58.4772 60.6159 58.6855 59.8281C58.9004 59.0404 59.2031 58.4089 59.5938 57.9336C59.9844 57.4518 60.4531 57.1068 61 56.8984C61.5534 56.6901 62.1719 56.5859 62.8555 56.5859C63.4089 56.5859 63.9167 56.6543 64.3789 56.791C64.8477 56.9212 65.2643 57.1328 65.6289 57.4258C65.9935 57.7122 66.3027 58.0964 66.5566 58.5781C66.8171 59.0534 67.0156 59.6361 67.1523 60.3262C67.2891 61.0163 67.3574 61.8268 67.3574 62.7578ZM65.541 65.2188V62.4551C65.541 61.8171 65.502 61.2572 65.4238 60.7754C65.3522 60.2871 65.2448 59.8704 65.1016 59.5254C64.9583 59.1803 64.776 58.9004 64.5547 58.6855C64.3398 58.4707 64.0892 58.3145 63.8027 58.2168C63.5228 58.1126 63.207 58.0605 62.8555 58.0605C62.4258 58.0605 62.0449 58.1419 61.7129 58.3047C61.3809 58.4609 61.1009 58.7116 60.873 59.0566C60.6517 59.4017 60.4824 59.8542 60.3652 60.4141C60.248 60.974 60.1895 61.6543 60.1895 62.4551V65.2188C60.1895 65.8568 60.2253 66.4199 60.2969 66.9082C60.375 67.3965 60.4889 67.8197 60.6387 68.1777C60.7884 68.5293 60.9707 68.819 61.1855 69.0469C61.4004 69.2747 61.6478 69.444 61.9277 69.5547C62.2142 69.6589 62.5299 69.7109 62.875 69.7109C63.3177 69.7109 63.7051 69.6263 64.0371 69.457C64.3691 69.2878 64.6458 69.0241 64.8672 68.666C65.0951 68.3014 65.2643 67.8359 65.375 67.2695C65.4857 66.6966 65.541 66.013 65.541 65.2188ZM69.5254 60.2676V59.5156C69.5254 58.9753 69.6426 58.4837 69.877 58.041C70.1113 57.5983 70.4466 57.2435 70.8828 56.9766C71.319 56.7096 71.8366 56.5762 72.4355 56.5762C73.0475 56.5762 73.5684 56.7096 73.998 56.9766C74.4342 57.2435 74.7695 57.5983 75.0039 58.041C75.2383 58.4837 75.3555 58.9753 75.3555 59.5156V60.2676C75.3555 60.7949 75.2383 61.2799 75.0039 61.7227C74.776 62.1654 74.444 62.5202 74.0078 62.7871C73.5781 63.054 73.0605 63.1875 72.4551 63.1875C71.8496 63.1875 71.3255 63.054 70.8828 62.7871C70.4466 62.5202 70.1113 62.1654 69.877 61.7227C69.6426 61.2799 69.5254 60.7949 69.5254 60.2676ZM70.8828 59.5156V60.2676C70.8828 60.5671 70.9382 60.8503 71.0488 61.1172C71.166 61.3841 71.3418 61.6022 71.5762 61.7715C71.8105 61.9342 72.1035 62.0156 72.4551 62.0156C72.8066 62.0156 73.0964 61.9342 73.3242 61.7715C73.5521 61.6022 73.7214 61.3841 73.832 61.1172C73.9427 60.8503 73.998 60.5671 73.998 60.2676V59.5156C73.998 59.2096 73.9395 58.9232 73.8223 58.6562C73.7116 58.3828 73.5391 58.1647 73.3047 58.002C73.0768 57.8327 72.7871 57.748 72.4355 57.748C72.0905 57.748 71.8008 57.8327 71.5664 58.002C71.3385 58.1647 71.166 58.3828 71.0488 58.6562C70.9382 58.9232 70.8828 59.2096 70.8828 59.5156ZM76.4492 68.2754V67.5137C76.4492 66.9798 76.5664 66.4915 76.8008 66.0488C77.0352 65.6061 77.3704 65.2513 77.8066 64.9844C78.2428 64.7174 78.7604 64.584 79.3594 64.584C79.9714 64.584 80.4922 64.7174 80.9219 64.9844C81.3581 65.2513 81.6934 65.6061 81.9277 66.0488C82.1621 66.4915 82.2793 66.9798 82.2793 67.5137V68.2754C82.2793 68.8092 82.1621 69.2975 81.9277 69.7402C81.6999 70.1829 81.3678 70.5378 80.9316 70.8047C80.502 71.0716 79.9844 71.2051 79.3789 71.2051C78.7734 71.2051 78.2526 71.0716 77.8164 70.8047C77.3802 70.5378 77.0417 70.1829 76.8008 69.7402C76.5664 69.2975 76.4492 68.8092 76.4492 68.2754ZM77.8066 67.5137V68.2754C77.8066 68.5749 77.862 68.8613 77.9727 69.1348C78.0898 69.4017 78.2656 69.6198 78.5 69.7891C78.7344 69.9518 79.0273 70.0332 79.3789 70.0332C79.7305 70.0332 80.0202 69.9518 80.248 69.7891C80.4824 69.6198 80.6549 69.4017 80.7656 69.1348C80.8763 68.8678 80.9316 68.5814 80.9316 68.2754V67.5137C80.9316 67.2077 80.873 66.9212 80.7559 66.6543C80.6452 66.3874 80.4727 66.1725 80.2383 66.0098C80.0104 65.8405 79.7174 65.7559 79.3594 65.7559C79.0143 65.7559 78.7246 65.8405 78.4902 66.0098C78.2624 66.1725 78.0898 66.3874 77.9727 66.6543C77.862 66.9212 77.8066 67.2077 77.8066 67.5137ZM79.8086 58.8027L72.8652 69.916L71.8496 69.2715L78.793 58.1582L79.8086 58.8027Z" fill="white"/>
<circle cx="65" cy="65" r="60" stroke="white" stroke-opacity="0.22" stroke-width="10"/>
<path d="M65 5C76.0653 5 86.9152 8.05997 96.3499 13.8416C105.785 19.6232 113.437 27.9013 118.46 37.7606C123.484 47.6199 125.683 58.6763 124.815 69.7075C123.947 80.7388 120.045 91.3151 113.541 100.267C107.037 109.219 98.1841 116.198 87.961 120.433C77.738 124.667 66.543 125.992 55.6139 124.261C44.6848 122.53 34.4473 117.811 26.0331 110.624C17.619 103.438 11.356 94.0648 7.93661 83.541" stroke="#0098F4" stroke-width="10" stroke-linecap="round" stroke-linejoin="round"/>
</svg>
