<svg width="130" height="130" viewBox="0 0 130 130" fill="none" xmlns="http://www.w3.org/2000/svg">
<path d="M56.3711 56.7812V57.7969L50.4824 71H48.5781L54.457 58.2656H46.7617V56.7812H56.3711ZM60.7168 64.2324L59.2715 63.8613L59.9844 56.7812H67.2793V58.4512H61.5176L61.0879 62.3184C61.3483 62.1686 61.6771 62.0286 62.0742 61.8984C62.4779 61.7682 62.9401 61.7031 63.4609 61.7031C64.1185 61.7031 64.7077 61.8171 65.2285 62.0449C65.7493 62.2663 66.1921 62.5853 66.5566 63.002C66.9277 63.4186 67.2109 63.9199 67.4062 64.5059C67.6016 65.0918 67.6992 65.7461 67.6992 66.4688C67.6992 67.1523 67.6048 67.7806 67.416 68.3535C67.2337 68.9264 66.957 69.4277 66.5859 69.8574C66.2148 70.2806 65.7461 70.6094 65.1797 70.8438C64.6198 71.0781 63.959 71.1953 63.1973 71.1953C62.6243 71.1953 62.0807 71.1172 61.5664 70.9609C61.0586 70.7982 60.6029 70.554 60.1992 70.2285C59.8021 69.8965 59.4766 69.4863 59.2227 68.998C58.9753 68.5033 58.819 67.9238 58.7539 67.2598H60.4727C60.5508 67.7936 60.707 68.2428 60.9414 68.6074C61.1758 68.972 61.4818 69.2487 61.8594 69.4375C62.2435 69.6198 62.6895 69.7109 63.1973 69.7109C63.627 69.7109 64.0078 69.6361 64.3398 69.4863C64.6719 69.3366 64.9518 69.1217 65.1797 68.8418C65.4076 68.5618 65.5801 68.2233 65.6973 67.8262C65.821 67.429 65.8828 66.9831 65.8828 66.4883C65.8828 66.0391 65.821 65.6224 65.6973 65.2383C65.5736 64.8542 65.388 64.5189 65.1406 64.2324C64.8997 63.946 64.6035 63.7246 64.252 63.5684C63.9004 63.4056 63.4967 63.3242 63.041 63.3242C62.4355 63.3242 61.9766 63.4056 61.6641 63.5684C61.3581 63.7311 61.0423 63.9525 60.7168 64.2324ZM69.5254 60.2676V59.5156C69.5254 58.9753 69.6426 58.4837 69.877 58.041C70.1113 57.5983 70.4466 57.2435 70.8828 56.9766C71.319 56.7096 71.8366 56.5762 72.4355 56.5762C73.0475 56.5762 73.5684 56.7096 73.998 56.9766C74.4342 57.2435 74.7695 57.5983 75.0039 58.041C75.2383 58.4837 75.3555 58.9753 75.3555 59.5156V60.2676C75.3555 60.7949 75.2383 61.2799 75.0039 61.7227C74.776 62.1654 74.444 62.5202 74.0078 62.7871C73.5781 63.054 73.0605 63.1875 72.4551 63.1875C71.8496 63.1875 71.3255 63.054 70.8828 62.7871C70.4466 62.5202 70.1113 62.1654 69.877 61.7227C69.6426 61.2799 69.5254 60.7949 69.5254 60.2676ZM70.8828 59.5156V60.2676C70.8828 60.5671 70.9382 60.8503 71.0488 61.1172C71.166 61.3841 71.3418 61.6022 71.5762 61.7715C71.8105 61.9342 72.1035 62.0156 72.4551 62.0156C72.8066 62.0156 73.0964 61.9342 73.3242 61.7715C73.5521 61.6022 73.7214 61.3841 73.832 61.1172C73.9427 60.8503 73.998 60.5671 73.998 60.2676V59.5156C73.998 59.2096 73.9395 58.9232 73.8223 58.6562C73.7116 58.3828 73.5391 58.1647 73.3047 58.002C73.0768 57.8327 72.7871 57.748 72.4355 57.748C72.0905 57.748 71.8008 57.8327 71.5664 58.002C71.3385 58.1647 71.166 58.3828 71.0488 58.6562C70.9382 58.9232 70.8828 59.2096 70.8828 59.5156ZM76.4492 68.2754V67.5137C76.4492 66.9798 76.5664 66.4915 76.8008 66.0488C77.0352 65.6061 77.3704 65.2513 77.8066 64.9844C78.2428 64.7174 78.7604 64.584 79.3594 64.584C79.9714 64.584 80.4922 64.7174 80.9219 64.9844C81.3581 65.2513 81.6934 65.6061 81.9277 66.0488C82.1621 66.4915 82.2793 66.9798 82.2793 67.5137V68.2754C82.2793 68.8092 82.1621 69.2975 81.9277 69.7402C81.6999 70.1829 81.3678 70.5378 80.9316 70.8047C80.502 71.0716 79.9844 71.2051 79.3789 71.2051C78.7734 71.2051 78.2526 71.0716 77.8164 70.8047C77.3802 70.5378 77.0417 70.1829 76.8008 69.7402C76.5664 69.2975 76.4492 68.8092 76.4492 68.2754ZM77.8066 67.5137V68.2754C77.8066 68.5749 77.862 68.8613 77.9727 69.1348C78.0898 69.4017 78.2656 69.6198 78.5 69.7891C78.7344 69.9518 79.0273 70.0332 79.3789 70.0332C79.7305 70.0332 80.0202 69.9518 80.248 69.7891C80.4824 69.6198 80.6549 69.4017 80.7656 69.1348C80.8763 68.8678 80.9316 68.5814 80.9316 68.2754V67.5137C80.9316 67.2077 80.873 66.9212 80.7559 66.6543C80.6452 66.3874 80.4727 66.1725 80.2383 66.0098C80.0104 65.8405 79.7174 65.7559 79.3594 65.7559C79.0143 65.7559 78.7246 65.8405 78.4902 66.0098C78.2624 66.1725 78.0898 66.3874 77.9727 66.6543C77.862 66.9212 77.8066 67.2077 77.8066 67.5137ZM79.8086 58.8027L72.8652 69.916L71.8496 69.2715L78.793 58.1582L79.8086 58.8027Z" fill="white"/>
<circle cx="65" cy="65" r="60" stroke="white" stroke-opacity="0.22" stroke-width="10"/>
<path d="M65 5C76.8669 5 88.4673 8.51894 98.3342 15.1118C108.201 21.7047 115.892 31.0754 120.433 42.039C124.974 53.0026 126.162 65.0666 123.847 76.7054C121.532 88.3443 115.818 99.0353 107.426 107.426C99.0353 115.818 88.3443 121.532 76.7054 123.847C65.0666 126.162 53.0026 124.974 42.039 120.433C31.0754 115.892 21.7047 108.201 15.1118 98.3342C8.51894 88.4673 5 76.8669 5 65" stroke="#0098F4" stroke-width="10" stroke-linecap="round" stroke-linejoin="round"/>
</svg>
